# xmcd
#
# Track frame offsets:
#	150
#	12561
#	23188
#	38611
#	57278
#	72251
#	87763
#	106383
#	125029
#	138900
#	156909
#	180367
#
# Disc length: 2595 seconds
#
# Revision: 1
# Processed by: cddbd v1.5.2PL0 Copyright (c) Steve Scherf et al.
# Submitted via: audiograbber 1.83.01
#
DISCID=9a0a210c
DTITLE=Sparnetts - The Sparnetts
DYEAR=1999
DGENRE=Country
TTITLE0=Rollin Along
TTITLE1=2 Pot Screamer
TTITLE2=Miss Show Girl
TTITLE3=Crazy Over You
TTITLE4=Wasting My Time
TTITLE5=Picture Of You
TTITLE6=Lucky I Am
TTITLE7=Got To Be In Love
TTITLE8=Haven't Got A Clue
TTITLE9=In The Winter
TTITLE10=Never Fall In Love
TTITLE11=Lonesome Baby
EXTD=Australian Recording
EXTT0=
EXTT1=
EXTT2=
EXTT3=
EXTT4=
EXTT5=
EXTT6=
EXTT7=
EXTT8=
EXTT9=
EXTT10=
EXTT11=
PLAYORDER=
